<svg width="26" height="26" viewBox="0 0 26 26" fill="none" xmlns="http://www.w3.org/2000/svg">
<path d="M23.0285 11.8755C23.542 12.5472 23.542 13.4539 23.0285 14.1245C21.4111 16.2359 17.5306 20.5833 13.0001 20.5833C8.46955 20.5833 4.58905 16.2359 2.97164 14.1245C2.7218 13.8029 2.58618 13.4073 2.58618 13C2.58618 12.5928 2.7218 12.1971 2.97164 11.8755C4.58905 9.76409 8.46955 5.41667 13.0001 5.41667C17.5306 5.41667 21.4111 9.76409 23.0285 11.8755V11.8755Z" stroke="white" stroke-width="2" stroke-linecap="round" stroke-linejoin="round"/>
<path d="M13 16.25C14.7949 16.25 16.25 14.7949 16.25 13C16.25 11.2051 14.7949 9.75 13 9.75C11.2051 9.75 9.75 11.2051 9.75 13C9.75 14.7949 11.2051 16.25 13 16.25Z" stroke="white" stroke-width="2" stroke-linecap="round" stroke-linejoin="round"/>
</svg>
