<svg width="26" height="26" viewBox="0 0 26 26" fill="none" xmlns="http://www.w3.org/2000/svg">
<path d="M21.7084 18.2617C24.4726 15.795 26.0001 13 26.0001 13C26.0001 13 21.1251 4.0625 13.0001 4.0625C11.4394 4.06787 9.8964 4.39307 8.46631 5.018L9.71756 6.27087C10.7696 5.88763 11.8803 5.69023 13.0001 5.6875C16.4451 5.6875 19.3034 7.5855 21.3981 9.68012C22.4061 10.6936 23.3098 11.8058 24.0956 13C24.0013 13.1414 23.8973 13.2974 23.7787 13.468C23.2343 14.248 22.4299 15.288 21.3981 16.3199C21.1299 16.588 20.8504 16.8529 20.5579 17.1096L21.7084 18.2617Z" fill="white"/>
<path d="M18.3577 14.911C18.7203 13.8967 18.7875 12.8004 18.5514 11.7494C18.3152 10.6985 17.7855 9.73623 17.0239 8.97458C16.2622 8.21293 15.3 7.68322 14.249 7.44709C13.1981 7.21096 12.1017 7.27812 11.0875 7.64075L12.4248 8.97812C13.0493 8.88873 13.6861 8.94602 14.2846 9.14544C14.8831 9.34485 15.427 9.68092 15.8731 10.127C16.3192 10.5731 16.6552 11.117 16.8546 11.7155C17.0541 12.314 17.1113 12.9507 17.022 13.5752L18.3577 14.911ZM13.5753 17.0219L14.9111 18.3576C13.8968 18.7202 12.8005 18.7874 11.7495 18.5513C10.6986 18.3151 9.73632 17.7854 8.97467 17.0238C8.21302 16.2621 7.68332 15.2999 7.44719 14.2489C7.21106 13.198 7.27821 12.1016 7.64084 11.0874L8.97821 12.4247C8.88883 13.0492 8.94611 13.686 9.14553 14.2845C9.34494 14.883 9.68101 15.4269 10.1271 15.873C10.5732 16.3191 11.1171 16.6551 11.7156 16.8546C12.3141 17.054 12.9508 17.1113 13.5753 17.0219V17.0219Z" fill="white"/>
<path d="M5.44375 8.88874C5.15125 9.14874 4.87012 9.41199 4.602 9.68012C3.59392 10.6936 2.69022 11.8058 1.9045 13L2.22137 13.468C2.76575 14.248 3.57012 15.288 4.602 16.3199C6.69662 18.4145 9.55662 20.3125 13 20.3125C14.1635 20.3125 15.2587 20.0964 16.2825 19.7275L17.5337 20.982C16.1036 21.6069 14.5607 21.9321 13 21.9375C4.875 21.9375 0 13 0 13C0 13 1.52587 10.2034 4.29162 7.73824L5.44212 8.89037L5.44375 8.88874ZM22.1747 23.3252L2.67475 3.82524L3.82525 2.67474L23.3252 22.1747L22.1747 23.3252Z" fill="white"/>
</svg>
